<svg width="24" height="24" viewBox="0 0 24 24" fill="none" xmlns="http://www.w3.org/2000/svg">
<path d="M13 2C13 1.44772 12.5523 1 12 1C11.4477 1 11 1.44772 11 2V12C11 12.5523 11.4477 13 12 13C12.5523 13 13 12.5523 13 12V2Z" fill="black"/>
<path d="M6.33734 7.34688C6.7278 6.9563 6.7277 6.32313 6.33711 5.93267C5.94653 5.54221 5.31336 5.54231 4.9229 5.9329C3.5247 7.33156 2.57262 9.11339 2.18703 11.0531C1.80144 12.9928 1.99967 15.0033 2.75664 16.8304C3.51361 18.6575 4.79534 20.2191 6.43976 21.3177C8.08418 22.4164 10.0174 23.0028 11.9951 23.0028C13.9728 23.0028 15.9061 22.4164 17.5505 21.3177C19.1949 20.2191 20.4766 18.6575 21.2336 16.8304C21.9906 15.0033 22.1888 12.9928 21.8032 11.0531C21.4176 9.11339 20.4655 7.33156 19.0673 5.9329C18.6769 5.54231 18.0437 5.54221 17.6531 5.93267C17.2625 6.32313 17.2624 6.9563 17.6529 7.34688C18.7715 8.46581 19.5331 9.89128 19.8416 11.4431C20.1501 12.9948 19.9915 14.6032 19.3859 16.0649C18.7803 17.5265 17.7549 18.7758 16.4394 19.6548C15.1239 20.5337 13.5773 21.0028 11.9951 21.0028C10.413 21.0028 8.86637 20.5337 7.55083 19.6548C6.23529 18.7758 5.20991 17.5265 4.60434 16.0649C3.99876 14.6032 3.84018 12.9948 4.14865 11.4431C4.45712 9.89128 5.21879 8.46581 6.33734 7.34688Z" fill="black"/>
</svg>
