<svg width="30" height="30" viewBox="0 0 30 30" fill="none" xmlns="http://www.w3.org/2000/svg">
<rect width="30" height="30" rx="4" fill="black" fill-opacity="0.11"/>
<path d="M23.4989 14.1123L15.1992 22.412C14.1824 23.4288 12.8033 24 11.3654 24C9.92745 24 8.54841 23.4288 7.53163 22.412C6.51485 21.3952 5.94363 20.0162 5.94363 18.5782C5.94363 17.1403 6.51485 15.7613 7.53163 14.7445L15.8313 6.44477C16.5092 5.76692 17.4286 5.38611 18.3872 5.38611C19.3458 5.38611 20.2652 5.76692 20.943 6.44477C21.6209 7.12262 22.0017 8.04199 22.0017 9.00061C22.0017 9.95924 21.6209 10.8786 20.943 11.5565L12.6343 19.8562C12.2954 20.1951 11.8357 20.3855 11.3564 20.3855C10.877 20.3855 10.4174 20.1951 10.0784 19.8562C9.73951 19.5172 9.54911 19.0576 9.54911 18.5782C9.54911 18.0989 9.73951 17.6392 10.0784 17.3003L17.746 9.64183" stroke="black" stroke-width="1.80625" stroke-linecap="round" stroke-linejoin="round"/>
</svg>
