<svg width="30" height="30" viewBox="0 0 30 30" fill="none" xmlns="http://www.w3.org/2000/svg">
<rect width="30" height="30" rx="4" fill="black" fill-opacity="0.11"/>
<path d="M16 5C16 4.44772 15.5523 4 15 4C14.4477 4 14 4.44772 14 5V15C14 15.5523 14.4477 16 15 16C15.5523 16 16 15.5523 16 15V5Z" fill="black"/>
<path d="M9.33734 10.3469C9.7278 9.9563 9.7277 9.32313 9.33711 8.93267C8.94653 8.54221 8.31336 8.54231 7.9229 8.9329C6.5247 10.3316 5.57262 12.1134 5.18703 14.0531C4.80144 15.9928 4.99967 18.0033 5.75664 19.8304C6.51361 21.6575 7.79534 23.2191 9.43976 24.3177C11.0842 25.4164 13.0174 26.0028 14.9951 26.0028C16.9728 26.0028 18.9061 25.4164 20.5505 24.3177C22.1949 23.2191 23.4766 21.6575 24.2336 19.8304C24.9906 18.0033 25.1888 15.9928 24.8032 14.0531C24.4176 12.1134 23.4655 10.3316 22.0673 8.9329C21.6769 8.54231 21.0437 8.54221 20.6531 8.93267C20.2625 9.32313 20.2624 9.9563 20.6529 10.3469C21.7715 11.4658 22.5331 12.8913 22.8416 14.4431C23.1501 15.9948 22.9915 17.6032 22.3859 19.0649C21.7803 20.5265 20.7549 21.7758 19.4394 22.6548C18.1239 23.5337 16.5773 24.0028 14.9951 24.0028C13.413 24.0028 11.8664 23.5337 10.5508 22.6548C9.23529 21.7758 8.20991 20.5265 7.60434 19.0649C6.99876 17.6032 6.84018 15.9948 7.14865 14.4431C7.45712 12.8913 8.21879 11.4658 9.33734 10.3469Z" fill="black"/>
</svg>
