<svg width="30" height="30" viewBox="0 0 30 30" fill="none" xmlns="http://www.w3.org/2000/svg">
<rect width="30" height="30" rx="4" fill="black" fill-opacity="0.11"/>
<path d="M23.6286 6.37143C23.8072 6.55003 23.8939 6.78571 23.8887 7.01974V12.3333C23.8887 12.8242 23.4908 13.2222 22.9998 13.2222C22.5089 13.2222 22.111 12.8242 22.111 12.3333V9.14616L17.4064 13.8507C17.0592 14.1979 16.4964 14.1979 16.1493 13.8507C15.8022 13.5036 15.8022 12.9408 16.1493 12.5937L20.8541 7.88886H17.6665C17.1756 7.88886 16.7776 7.49089 16.7776 6.99997C16.7776 6.50905 17.1756 6.11108 17.6665 6.11108H22.9997C23.0112 6.11108 23.0227 6.1113 23.0342 6.11174C23.2502 6.11998 23.4637 6.20655 23.6286 6.37143Z" fill="black"/>
<path d="M7.88889 17.6667C7.88889 17.1758 7.49092 16.7778 7 16.7778C6.50908 16.7778 6.11111 17.1758 6.11111 17.6667V22.9997C6.11111 23.1252 6.1371 23.2449 6.18399 23.3531C6.22031 23.4371 6.27019 23.5166 6.33364 23.5884C6.35861 23.6166 6.38535 23.6433 6.41369 23.6682C6.48057 23.727 6.55418 23.774 6.63182 23.8093C6.744 23.8605 6.86868 23.8889 7 23.8889H12.3333C12.8243 23.8889 13.2222 23.491 13.2222 23.0001C13.2222 22.5091 12.8243 22.1112 12.3333 22.1112H9.14594L13.8508 17.4063C14.1979 17.0592 14.1979 16.4964 13.8508 16.1493C13.5036 15.8021 12.9408 15.8021 12.5937 16.1493L7.88889 20.8541V17.6667Z" fill="black"/>
</svg>
