<svg width="30" height="30" viewBox="0 0 30 30" fill="none" xmlns="http://www.w3.org/2000/svg">
<rect width="30" height="30" rx="4" fill="black" fill-opacity="0.11"/>
<path d="M19.4142 12L24.7071 6.70711C25.0976 6.31658 25.0976 5.68342 24.7071 5.29289C24.3166 4.90237 23.6834 4.90237 23.2929 5.29289L18 10.5858V7C18 6.44772 17.5523 6 17 6C16.4477 6 16 6.44772 16 7V12.9993C16 13.0003 16 13.002 16 13.003C16.0004 13.1375 16.0273 13.2657 16.0759 13.3828C16.1243 13.4999 16.196 13.6096 16.2908 13.705C16.2922 13.7064 16.2936 13.7078 16.295 13.7092C16.4892 13.9023 16.743 13.9992 16.997 14C16.998 14 16.999 14 17 14H23C23.5523 14 24 13.5523 24 13C24 12.4477 23.5523 12 23 12H19.4142Z" fill="black"/>
<path d="M7 16C6.44772 16 6 16.4477 6 17C6 17.5523 6.44772 18 7 18H10.5858L5.29289 23.2929C4.90237 23.6834 4.90237 24.3166 5.29289 24.7071C5.68342 25.0976 6.31658 25.0976 6.70711 24.7071L12 19.4142V23C12 23.5523 12.4477 24 13 24C13.5523 24 14 23.5523 14 23V17.0007L14 16.997C13.9996 16.8625 13.9727 16.7343 13.9241 16.6172C13.8757 16.5001 13.804 16.3904 13.7092 16.295L13.705 16.2908C13.5248 16.1117 13.2769 16.0008 13.003 16L13 16H7Z" fill="black"/>
</svg>
