<svg width="18" height="18" viewBox="0 0 18 18" fill="none" xmlns="http://www.w3.org/2000/svg">
<path d="M3 4.54963V7.87831M3 7.87831H6.32867M3 7.87831L5.57417 5.45944C6.34028 4.69463 7.33418 4.19952 8.40614 4.0487C9.4781 3.89788 10.57 4.09953 11.5174 4.62326C12.4648 5.14699 13.2163 5.96442 13.6588 6.95241C14.1012 7.94039 14.2105 9.04539 13.9703 10.1009C13.7301 11.1565 13.1534 12.1053 12.327 12.8046C11.5006 13.5038 10.4694 13.9156 9.38868 13.9778C8.30795 14.04 7.23628 13.7493 6.33514 13.1494C5.434 12.5496 4.75221 11.6732 4.39249 10.6522" stroke="black" stroke-opacity="0.66" stroke-width="1.10956" stroke-linecap="round" stroke-linejoin="round"/>
</svg>
